<svg xmlns="http://www.w3.org/2000/svg" viewBox="0 0 592.31 202.87">
  <defs>
    <style>
      .\30 030576b-3eb6-4ea6-abe6-fea66d1d7543, .\32 4cfdc85-056a-45f8-b355-e685340b9daf, .ec9ce2e1-bdf8-4fe0-81cc-909813aa99dc {
        fill: #2e2282;
      }

      .\33 3efaf06-81c2-4a77-83ef-609e8f8c37fc {
        fill: #b7000b;
      }

      .\32 4cfdc85-056a-45f8-b355-e685340b9daf {
        fill-rule: evenodd;
      }

      .\30 030576b-3eb6-4ea6-abe6-fea66d1d7543 {
        font-size: 31px;
        font-family: BauhausITCbyBT-Bold, BauhausITCbyBT Bold;
        font-weight: 700;
      }
    </style>
  </defs>
  <title>Asset 3</title>
  <g id="525d920d-1de3-4ac6-bff4-a3a5c8604662" data-name="Layer 2">
    <g id="b44bcb3d-ab65-4d2a-8bc8-782b1de60596" data-name="Camada 1">
      <g>
        <path class="ec9ce2e1-bdf8-4fe0-81cc-909813aa99dc" d="M273.88,46.85a61.66,61.66,0,0,1-.11,20.41,26.4,26.4,0,0,0-7.84-7.12,18.45,18.45,0,0,0,2-5.22c1-4.94,0-10.49-3.45-15.9a33.81,33.81,0,0,0-2.68-3.62A16.94,16.94,0,0,1,260.52,38a17.12,17.12,0,0,1-4.1,4.7c.27.89.52,1.79.75,2.68a64.71,64.71,0,0,1,2,13h-5.79A58.31,58.31,0,0,0,251.59,47c-.11-.43-.23-.86-.35-1.3a22.76,22.76,0,0,1-6.52,1.53,38.75,38.75,0,0,1-7.66-.2c-.41,3.79-1,7.58-1.77,11.34h-5.87a113.66,113.66,0,0,0,2-12.31,67.23,67.23,0,0,1-8.33-2.45,68.57,68.57,0,0,1-8-3.48,113.35,113.35,0,0,0-10,18.24h-6.24a121.18,121.18,0,0,1,11.3-21.15,38.75,38.75,0,0,1-6-4.78,22.67,22.67,0,0,1-3.78-4.93l-.55.4A60.61,60.61,0,0,0,183.66,46a35.57,35.57,0,0,0,6.86,7.57,55.65,55.65,0,0,0,6.81,4.82h-9.9l-.59-.49a43.22,43.22,0,0,1-6.08-6.21c-.47,1.07-.91,2.15-1.31,3.23s-.81,2.3-1.16,3.47h-6q.73-2.75,1.73-5.45a63.77,63.77,0,0,1,3-6.86,31.42,31.42,0,0,1-2.43-6,27.62,27.62,0,0,1-1.12-7.34A51.83,51.83,0,0,0,170.18,40a52.51,52.51,0,0,0-1.92,6.28,32.24,32.24,0,0,0,0,12.12h-7.24a59.34,59.34,0,0,1,1.57-13.17c.1-.56.22-1.12.34-1.68H163c.5-1.87,1.09-3.73,1.77-5.56A60.74,60.74,0,0,1,182,13.41,54.27,54.27,0,0,1,209.22.69a57.62,57.62,0,0,1,52,18.94,54.29,54.29,0,0,1,12.64,27.22Zm-58-27.5a61.07,61.07,0,0,0-10.73,5,16.92,16.92,0,0,0,3,4,33.56,33.56,0,0,0,5.26,4.16,114,114,0,0,1,7.32-8.88,22,22,0,0,1-4.86-4.33ZM180.62,40a66.43,66.43,0,0,1,15.83-16.8c.56-.42,1.13-.84,1.71-1.23a17,17,0,0,1-.23-6.69,15.29,15.29,0,0,1,.71-2.68,33.92,33.92,0,0,0-4.56,1.07c-6,1.91-10.26,5.39-12.64,9.8a20,20,0,0,0-1.28,15.12q.21.71.46,1.42Zm22.84-21.38A68.07,68.07,0,0,1,213.32,14a10,10,0,0,1-.17-1.52,57.15,57.15,0,0,0-7.82-.5,10.28,10.28,0,0,0-1.74,4.18,10.92,10.92,0,0,0-.13,2.4ZM226,26.53a106.87,106.87,0,0,0-7.51,8.9A62.14,62.14,0,0,0,225,38.24a63.16,63.16,0,0,0,6.82,2.06,104,104,0,0,0,0-11.78,37.9,37.9,0,0,1-3.64-1.11Q227,27,226,26.53ZM214.21,5.87c-.71.26-1.38.54-2,.84.83.09,1.68.19,2.54.31a9.38,9.38,0,0,1,.92-1.12l.12-.12-1.57.09Zm23.33,35.47a33.76,33.76,0,0,0,6.71.2,17,17,0,0,0,5.18-1.27,67,67,0,0,0-5.69-11.39l-.64.15a20.7,20.7,0,0,1-5.48.39,112.45,112.45,0,0,1-.08,11.91Zm16.79-4.49a10.53,10.53,0,0,0,1.25-1.7,10.34,10.34,0,0,0,1.37-4.5,54.88,54.88,0,0,0-7.52-5.27c-.18.22-.38.43-.58.63a72.37,72.37,0,0,1,5.49,10.83ZM255,22.18c-.28-.59-.59-1.18-.93-1.79-.76-.73-1.53-1.44-2.32-2.12l-.33-.06c0,.26.07.51.08.76a8.56,8.56,0,0,1,0,1.1q1.82,1,3.48,2.12ZM218.88,11.92a4.69,4.69,0,0,0,.1,1.25,6.36,6.36,0,0,0,1.21,2.39c2,2.63,5.77,4.95,9.9,6.45s8.51,2.14,11.73,1.42a6.24,6.24,0,0,0,2.46-1.06,4.59,4.59,0,0,0,.89-.88,3.18,3.18,0,0,0,.62-2.15,6.31,6.31,0,0,0-1.45-3.3A16.77,16.77,0,0,0,241,12.86,30.79,30.79,0,0,0,227.64,8a16.94,16.94,0,0,0-4.62.28,8.91,8.91,0,0,0-1.53.49l-.2.17,0-.06a4.82,4.82,0,0,0-1.44,1A3.19,3.19,0,0,0,218.88,11.92Z"/>
        <rect class="33efaf06-81c2-4a77-83ef-609e8f8c37fc" x="196.29" y="68.41" width="31.52" height="126.8"/>
        <g>
          <path class="24cfdc85-056a-45f8-b355-e685340b9daf" d="M232.88,195.21V87.88q0-10.16,5.25-16.15c3.54-4,8.19-6,14.05-6a19.48,19.48,0,0,1,12.48,4.11c3.48,2.75,7.1,8.15,11.61,15.81l27.35,46.45V68.41H334.1V180c0,5.14-1.45,9.31-4.38,12.49a15,15,0,0,1-11.55,4.77,17,17,0,0,1-10.43-3.18c-2.85-2.12-5.83-6.29-9.34-12.3l-35-60.06v73.51Z"/>
          <path class="24cfdc85-056a-45f8-b355-e685340b9daf" d="M89.49,195.21V87.88q0-10.16,5.26-16.15c3.54-4,8.19-6,14.05-6a19.48,19.48,0,0,1,12.48,4.11c3.48,2.75,7.1,8.15,11.61,15.81l27.36,46.45V68.41h30.46V180c0,5.14-1.45,9.31-4.39,12.49a15,15,0,0,1-11.54,4.77,17,17,0,0,1-10.43-3.18c-2.85-2.12-5.84-6.29-9.33-12.3L120,121.7v73.51Z"/>
          <path class="24cfdc85-056a-45f8-b355-e685340b9daf" d="M35.89,116.53H80.81v29.08H34.3c1.77,6.73,7.57,12.47,13.56,15.47q10.47,5.26,28.17,5.26c1.57,0,2.81,0,3.66,0s1.63-.07,2.27-.07v29H78.69a138.36,138.36,0,0,1-29-2.66,63.39,63.39,0,0,1-20.92-8A63.06,63.06,0,0,1,7.36,161.84c-9.77-17.73-9.83-42.48-.06-60.16A62.62,62.62,0,0,1,28.82,79.11a63.9,63.9,0,0,1,20.92-8,139.65,139.65,0,0,1,29-2.65H88C83.7,74,82.08,80.84,82.08,87.88v9.19l-.12.21c-.82-.06-1.7-.12-2.6-.16s-2.24,0-4,0q-16.64,0-26.48,4.86C42.61,105.09,37.49,109.73,35.89,116.53Z"/>
        </g>
        <g>
          <path class="ec9ce2e1-bdf8-4fe0-81cc-909813aa99dc" d="M376.77,83.44H364.83c.28,4.46,4.42,7.78,8.73,7.78h3.21v3h-2.61c-7.42,0-12.79-5.14-12.79-11.83s5.37-11.83,12.79-11.83h2.61v3h-2.23c-6.47,0-9.58,4.6-9.72,7h11.94Z"/>
          <path class="ec9ce2e1-bdf8-4fe0-81cc-909813aa99dc" d="M380,94.19v-21a2.62,2.62,0,0,1,2.9-2.91c1.91,0,2.58,1.08,3.78,3.48l8,15.72h.07v-19H398V92.13c0,1.29-.81,2.27-2.54,2.27s-2.37-.47-3.29-2.3l-8.8-17.31h-.07V94.19Z"/>
          <path class="ec9ce2e1-bdf8-4fe0-81cc-909813aa99dc" d="M416.6,73.5h-2.26c-5.65,0-9.82,3.79-9.82,8.86a8.56,8.56,0,0,0,8.55,8.86h3.53v3h-3.53a11.63,11.63,0,0,1-12-11.83c0-5.75,4.91-11.83,12.93-11.83h2.62Z"/>
          <path class="ec9ce2e1-bdf8-4fe0-81cc-909813aa99dc" d="M431.23,70.12c7,0,12.93,5.41,12.93,12.24S438.23,94.6,431.23,94.6,418.3,89.19,418.3,82.36,424.24,70.12,431.23,70.12Zm0,21.5a9.27,9.27,0,1,0-9.47-9.26A9.26,9.26,0,0,0,431.23,91.62Z"/>
          <path class="ec9ce2e1-bdf8-4fe0-81cc-909813aa99dc" d="M446.75,94.19v-21a2.62,2.62,0,0,1,2.9-2.91c1.91,0,2.58,1.08,3.78,3.48l8,15.72h.07v-19h3.32V92.13c0,1.29-.81,2.27-2.54,2.27s-2.37-.47-3.29-2.3l-8.8-17.31h-.07V94.19Z"/>
          <path class="ec9ce2e1-bdf8-4fe0-81cc-909813aa99dc" d="M466.64,70.52h15.55v3h-6.11V94.19h-3.32V73.5h-6.11Z"/>
          <path class="ec9ce2e1-bdf8-4fe0-81cc-909813aa99dc" d="M484,94.19V78.57c0-5.31,3.32-8.45,8.2-8.45,4.56,0,7.63,3.08,7.63,6.73A5.61,5.61,0,0,1,497,82.12c2.12.81,3.29,2,3.29,5.48v6.59H497V87.7c0-2.33-1.42-3.85-4.49-3.85H488.8v-3h2.61c2.93,0,5.13-1.29,5.13-3.92a4,4,0,0,0-4.31-3.86c-2.86,0-4.88,1.83-4.88,4.56V94.19Z"/>
          <path class="ec9ce2e1-bdf8-4fe0-81cc-909813aa99dc" d="M515.66,70.12c7,0,12.93,5.41,12.93,12.24S522.66,94.6,515.66,94.6s-12.93-5.41-12.93-12.24S508.66,70.12,515.66,70.12Zm0,21.5a9.27,9.27,0,1,0-9.47-9.26A9.26,9.26,0,0,0,515.66,91.62Z"/>
          <path class="ec9ce2e1-bdf8-4fe0-81cc-909813aa99dc" d="M362.82,128V104.34h3.32V128Z"/>
          <path class="ec9ce2e1-bdf8-4fe0-81cc-909813aa99dc" d="M370.17,128V107a2.62,2.62,0,0,1,2.9-2.91c1.91,0,2.58,1.08,3.78,3.48l8,15.72h.07v-19h3.32v21.61c0,1.29-.81,2.27-2.54,2.27s-2.37-.47-3.29-2.3l-8.8-17.31h-.07V128Z"/>
          <path class="ec9ce2e1-bdf8-4fe0-81cc-909813aa99dc" d="M390.06,104.34h15.55v3H399.5V128h-3.32V107.31h-6.11Z"/>
          <path class="ec9ce2e1-bdf8-4fe0-81cc-909813aa99dc" d="M421.9,117.25H410c.28,4.46,4.42,7.78,8.73,7.78h3.21v3h-2.61c-7.42,0-12.79-5.14-12.79-11.83s5.37-11.83,12.79-11.83h2.61v3h-2.22c-6.47,0-9.58,4.6-9.72,7H421.9Z"/>
          <path class="ec9ce2e1-bdf8-4fe0-81cc-909813aa99dc" d="M425.12,128V112.38c0-5.31,3.32-8.45,8.2-8.45,4.56,0,7.63,3.08,7.63,6.73a5.61,5.61,0,0,1-2.86,5.27c2.12.81,3.29,2,3.29,5.48V128h-3.32v-6.49c0-2.33-1.41-3.85-4.49-3.85h-3.68v-3h2.62c2.93,0,5.12-1.28,5.12-3.92a4,4,0,0,0-4.31-3.85c-2.86,0-4.88,1.83-4.88,4.56V128Z"/>
          <path class="ec9ce2e1-bdf8-4fe0-81cc-909813aa99dc" d="M444.77,128V107a2.62,2.62,0,0,1,2.9-2.91c1.91,0,2.58,1.08,3.78,3.48l8,15.72h.07v-19h3.32v21.61c0,1.29-.81,2.27-2.54,2.27s-2.37-.47-3.29-2.3l-8.8-17.31h-.07V128Z"/>
          <path class="ec9ce2e1-bdf8-4fe0-81cc-909813aa99dc" d="M466,128V113c0-5.61,3.64-9.06,8.45-9.06s8.45,3.45,8.45,9.06v15h-3.32V117.25h-8.9v-3h8.9v-1.49c0-3.72-2.08-5.88-5.12-5.88s-5.12,2.16-5.12,5.88V128Z"/>
          <path class="ec9ce2e1-bdf8-4fe0-81cc-909813aa99dc" d="M501,107.31h-2.26c-5.66,0-9.82,3.79-9.82,8.86a8.55,8.55,0,0,0,8.55,8.86H501v3h-3.53a11.63,11.63,0,0,1-12-11.83c0-5.75,4.91-11.83,12.93-11.83H501Z"/>
          <path class="ec9ce2e1-bdf8-4fe0-81cc-909813aa99dc" d="M504.17,128V104.34h3.32V128Z"/>
          <path class="ec9ce2e1-bdf8-4fe0-81cc-909813aa99dc" d="M523.5,103.93c7,0,12.93,5.41,12.93,12.24s-5.94,12.24-12.93,12.24-12.93-5.41-12.93-12.24S516.51,103.93,523.5,103.93Zm0,21.5a9.27,9.27,0,1,0-9.47-9.26A9.26,9.26,0,0,0,523.5,125.43Z"/>
          <path class="ec9ce2e1-bdf8-4fe0-81cc-909813aa99dc" d="M539,128V107a2.62,2.62,0,0,1,2.9-2.91c1.91,0,2.58,1.08,3.78,3.48l8,15.72h.07v-19H557v21.61c0,1.29-.81,2.27-2.54,2.27s-2.37-.47-3.29-2.3l-8.8-17.31h-.07V128Z"/>
          <path class="ec9ce2e1-bdf8-4fe0-81cc-909813aa99dc" d="M560.22,128V113c0-5.61,3.64-9.06,8.45-9.06s8.45,3.45,8.45,9.06v15h-3.32V117.25h-8.91v-3h8.91v-1.49c0-3.72-2.09-5.88-5.12-5.88s-5.12,2.16-5.12,5.88V128Z"/>
          <path class="ec9ce2e1-bdf8-4fe0-81cc-909813aa99dc" d="M584.08,104.34v15.25c0,3.65,1.55,5.44,5,5.44h3.22v3H588.6c-4.77,0-7.85-3.18-7.85-7.64v-16Z"/>
          <path class="ec9ce2e1-bdf8-4fe0-81cc-909813aa99dc" d="M362.64,161.82V138.15h6.26a11.84,11.84,0,1,1,0,23.67h-1.52v-3h1.8a8.55,8.55,0,0,0,8.37-8.86c0-5.21-4-8.86-9.58-8.86h-2v20.69Z"/>
          <path class="ec9ce2e1-bdf8-4fe0-81cc-909813aa99dc" d="M398.37,151.07H386.42c.28,4.46,4.42,7.78,8.73,7.78h3.22v3h-2.62c-7.42,0-12.79-5.14-12.79-11.84s5.37-11.83,12.79-11.83h2.62v3h-2.23c-6.46,0-9.58,4.6-9.72,7h11.95Z"/>
          <path class="ec9ce2e1-bdf8-4fe0-81cc-909813aa99dc" d="M411.41,161.82v-21a2.62,2.62,0,0,1,2.9-2.91c1.91,0,2.58,1.08,3.78,3.48l8,15.72h.07v-19h3.32v21.61c0,1.29-.81,2.27-2.55,2.27s-2.37-.47-3.29-2.3l-8.8-17.31h-.07v19.41Z"/>
          <path class="ec9ce2e1-bdf8-4fe0-81cc-909813aa99dc" d="M447.45,151.07H435.51c.28,4.46,4.42,7.78,8.73,7.78h3.22v3h-2.62c-7.42,0-12.79-5.14-12.79-11.84s5.37-11.83,12.79-11.83h2.62v3h-2.23c-6.46,0-9.58,4.6-9.72,7h11.95Z"/>
          <path class="ec9ce2e1-bdf8-4fe0-81cc-909813aa99dc" d="M470.64,144.3c-2.72-2.16-4.52-3.58-8-3.58a9.27,9.27,0,1,0,0,18.53c4.7,0,8.83-2.94,9.08-7.78h-8.62v-3h12.09v2c0,7.68-6.64,11.7-12.54,11.7-7,0-12.93-5.41-12.93-12.24s5.94-12.24,12.93-12.24c4.13,0,6.93,1.12,10.21,4.26Z"/>
          <path class="ec9ce2e1-bdf8-4fe0-81cc-909813aa99dc" d="M490.14,137.74c7,0,12.93,5.41,12.93,12.24s-5.94,12.24-12.93,12.24-12.93-5.41-12.93-12.24S483.15,137.74,490.14,137.74Zm0,21.5a9.27,9.27,0,1,0-9.47-9.26A9.26,9.26,0,0,0,490.14,159.25ZM491,132h3.82l-4.59,4.8h-2.4Z"/>
          <path class="ec9ce2e1-bdf8-4fe0-81cc-909813aa99dc" d="M520.68,141.13h-2.26c-5.66,0-9.82,3.79-9.82,8.86a8.56,8.56,0,0,0,8.55,8.86h3.53v3h-3.53a11.63,11.63,0,0,1-12-11.84c0-5.75,4.91-11.83,12.94-11.83h2.61Z"/>
          <path class="ec9ce2e1-bdf8-4fe0-81cc-909813aa99dc" d="M523.82,161.82V138.15h3.32v23.67Z"/>
          <path class="ec9ce2e1-bdf8-4fe0-81cc-909813aa99dc" d="M543.15,137.74c7,0,12.93,5.41,12.93,12.24s-5.94,12.24-12.93,12.24-12.93-5.41-12.93-12.24S536.16,137.74,543.15,137.74Zm0,21.5a9.27,9.27,0,1,0-9.47-9.26A9.26,9.26,0,0,0,543.15,159.25Z"/>
          <path class="ec9ce2e1-bdf8-4fe0-81cc-909813aa99dc" d="M557.75,158.84h8.48c2.93,0,4.13-1,4.13-3.08,0-4.83-12.44-4.63-12.44-11.67,0-3.85,2.9-6,6.78-6h7.88v3h-8.34c-1.84,0-3,1-3,2.81,0,4.36,12.44,4.36,12.44,11.56,0,3.79-2.47,6.32-6.86,6.32h-9.08Z"/>
        </g>
        <text class="0030576b-3eb6-4ea6-abe6-fea66d1d7543" transform="translate(361.37 195.12)">2017</text>
      </g>
    </g>
  </g>
</svg>
